<mxfile host="app.diagrams.net" modified="2023-11-13T18:25:05.537Z" agent="Mozilla/5.0 (Macintosh; Intel Mac OS X 10_15_7) AppleWebKit/537.36 (KHTML, like Gecko) Chrome/119.0.0.0 Safari/537.36 Edg/119.0.0.0" etag="d6yFick1aFs7-oNHUDM_" version="22.1.0" type="device">
  <diagram name="Page-1" id="k9UNR40o6eMW8pH5uKdg">
    <mxGraphModel dx="954" dy="1813" grid="1" gridSize="10" guides="1" tooltips="1" connect="1" arrows="1" fold="1" page="1" pageScale="1" pageWidth="827" pageHeight="1169" math="0" shadow="0">
      <root>
        <mxCell id="0" />
        <mxCell id="1" parent="0" />
        <mxCell id="-I0U8ej934PMOTIwb44J-1" value="Process" style="rounded=0;whiteSpace=wrap;html=1;fillColor=#dae8fc;strokeColor=#6c8ebf;fontStyle=1" parent="1" vertex="1">
          <mxGeometry x="320" y="280" width="120" height="60" as="geometry" />
        </mxCell>
        <mxCell id="-I0U8ej934PMOTIwb44J-2" value="Process Definition" style="rounded=0;whiteSpace=wrap;html=1;fillColor=#dae8fc;strokeColor=#6c8ebf;fontStyle=1" parent="1" vertex="1">
          <mxGeometry x="320" y="100" width="120" height="60" as="geometry" />
        </mxCell>
        <mxCell id="-I0U8ej934PMOTIwb44J-3" value="BPMN Model" style="rounded=0;whiteSpace=wrap;html=1;fillColor=#dae8fc;strokeColor=#6c8ebf;fontStyle=1" parent="1" vertex="1">
          <mxGeometry x="480" y="-20" width="120" height="60" as="geometry" />
        </mxCell>
        <mxCell id="-I0U8ej934PMOTIwb44J-4" value="Web Page" style="rounded=0;whiteSpace=wrap;html=1;fillColor=#dae8fc;strokeColor=#6c8ebf;fontStyle=1" parent="1" vertex="1">
          <mxGeometry x="160" y="-20" width="120" height="60" as="geometry" />
        </mxCell>
        <mxCell id="-I0U8ej934PMOTIwb44J-6" value="USER" style="rounded=0;whiteSpace=wrap;html=1;fillColor=#dae8fc;strokeColor=#6c8ebf;fontStyle=1" parent="1" vertex="1">
          <mxGeometry x="160" y="440" width="120" height="60" as="geometry" />
        </mxCell>
        <mxCell id="-I0U8ej934PMOTIwb44J-7" value="Transactions" style="rounded=0;whiteSpace=wrap;html=1;fillColor=#ffe6cc;strokeColor=#d79b00;fontStyle=1" parent="1" vertex="1">
          <mxGeometry x="560" y="280" width="120" height="60" as="geometry" />
        </mxCell>
        <mxCell id="-I0U8ej934PMOTIwb44J-8" value="Steps" style="rounded=0;whiteSpace=wrap;html=1;fillColor=#dae8fc;strokeColor=#6c8ebf;fontStyle=1" parent="1" vertex="1">
          <mxGeometry x="80" y="280" width="120" height="60" as="geometry" />
        </mxCell>
        <mxCell id="-I0U8ej934PMOTIwb44J-9" value="Dyna Screen" style="rounded=0;whiteSpace=wrap;html=1;fillColor=#dae8fc;strokeColor=#6c8ebf;fontStyle=1" parent="1" vertex="1">
          <mxGeometry x="480" y="440" width="120" height="60" as="geometry" />
        </mxCell>
        <mxCell id="-I0U8ej934PMOTIwb44J-14" value="" style="endArrow=block;startArrow=block;endFill=1;startFill=1;html=1;rounded=0;exitX=1.017;exitY=0.367;exitDx=0;exitDy=0;entryX=0.325;entryY=1.05;entryDx=0;entryDy=0;entryPerimeter=0;exitPerimeter=0;" parent="1" source="-I0U8ej934PMOTIwb44J-6" target="-I0U8ej934PMOTIwb44J-1" edge="1">
          <mxGeometry width="160" relative="1" as="geometry">
            <mxPoint x="340" y="270" as="sourcePoint" />
            <mxPoint x="500" y="270" as="targetPoint" />
            <Array as="points">
              <mxPoint x="359" y="460" />
            </Array>
          </mxGeometry>
        </mxCell>
        <mxCell id="-I0U8ej934PMOTIwb44J-15" value="1" style="edgeLabel;html=1;align=center;verticalAlign=middle;resizable=0;points=[];" parent="-I0U8ej934PMOTIwb44J-14" vertex="1" connectable="0">
          <mxGeometry x="-0.5655" y="1" relative="1" as="geometry">
            <mxPoint x="-24" y="10" as="offset" />
          </mxGeometry>
        </mxCell>
        <mxCell id="-I0U8ej934PMOTIwb44J-16" value="0.*" style="edgeLabel;html=1;align=center;verticalAlign=middle;resizable=0;points=[];" parent="-I0U8ej934PMOTIwb44J-14" vertex="1" connectable="0">
          <mxGeometry x="0.6276" y="2" relative="1" as="geometry">
            <mxPoint x="-7" y="-9" as="offset" />
          </mxGeometry>
        </mxCell>
        <mxCell id="-I0U8ej934PMOTIwb44J-24" value="1" style="endArrow=open;html=1;endSize=12;startArrow=diamondThin;startSize=14;startFill=0;edgeStyle=orthogonalEdgeStyle;align=left;verticalAlign=bottom;rounded=0;exitX=0.667;exitY=1.067;exitDx=0;exitDy=0;exitPerimeter=0;entryX=0;entryY=0.25;entryDx=0;entryDy=0;" parent="1" source="-I0U8ej934PMOTIwb44J-1" target="-I0U8ej934PMOTIwb44J-9" edge="1">
          <mxGeometry x="-0.8327" y="10" relative="1" as="geometry">
            <mxPoint x="340" y="260" as="sourcePoint" />
            <mxPoint x="500" y="260" as="targetPoint" />
            <Array as="points">
              <mxPoint x="400" y="455" />
            </Array>
            <mxPoint as="offset" />
          </mxGeometry>
        </mxCell>
        <mxCell id="-I0U8ej934PMOTIwb44J-26" value="1" style="endArrow=open;html=1;endSize=12;startArrow=diamondThin;startSize=14;startFill=0;edgeStyle=orthogonalEdgeStyle;align=left;verticalAlign=bottom;rounded=0;entryX=0;entryY=0.5;entryDx=0;entryDy=0;exitX=1;exitY=0.5;exitDx=0;exitDy=0;" parent="1" source="-I0U8ej934PMOTIwb44J-1" target="-I0U8ej934PMOTIwb44J-7" edge="1">
          <mxGeometry x="-1" y="3" relative="1" as="geometry">
            <mxPoint x="410" y="325" as="sourcePoint" />
            <mxPoint x="530" y="310" as="targetPoint" />
            <Array as="points" />
            <mxPoint as="offset" />
          </mxGeometry>
        </mxCell>
        <mxCell id="-I0U8ej934PMOTIwb44J-27" value="1" style="endArrow=open;html=1;endSize=12;startArrow=diamondThin;startSize=14;startFill=0;edgeStyle=orthogonalEdgeStyle;align=left;verticalAlign=bottom;rounded=0;entryX=1;entryY=0.5;entryDx=0;entryDy=0;exitX=0;exitY=0.5;exitDx=0;exitDy=0;" parent="1" source="-I0U8ej934PMOTIwb44J-1" target="-I0U8ej934PMOTIwb44J-8" edge="1">
          <mxGeometry x="-1" y="3" relative="1" as="geometry">
            <mxPoint x="190" y="360" as="sourcePoint" />
            <mxPoint x="310" y="360" as="targetPoint" />
            <Array as="points" />
            <mxPoint as="offset" />
          </mxGeometry>
        </mxCell>
        <mxCell id="-I0U8ej934PMOTIwb44J-28" value="1" style="endArrow=open;html=1;endSize=12;startArrow=diamondThin;startSize=14;startFill=0;edgeStyle=orthogonalEdgeStyle;align=left;verticalAlign=bottom;rounded=0;exitX=0.5;exitY=0;exitDx=0;exitDy=0;entryX=0.5;entryY=1;entryDx=0;entryDy=0;" parent="1" source="-I0U8ej934PMOTIwb44J-1" target="-I0U8ej934PMOTIwb44J-2" edge="1">
          <mxGeometry x="-0.6667" y="10" relative="1" as="geometry">
            <mxPoint x="560" y="170" as="sourcePoint" />
            <mxPoint x="414" y="230" as="targetPoint" />
            <mxPoint as="offset" />
          </mxGeometry>
        </mxCell>
        <mxCell id="-I0U8ej934PMOTIwb44J-29" value="1" style="edgeLabel;html=1;align=center;verticalAlign=middle;resizable=0;points=[];" parent="-I0U8ej934PMOTIwb44J-28" vertex="1" connectable="0">
          <mxGeometry x="0.3858" y="1" relative="1" as="geometry">
            <mxPoint x="1" y="-7" as="offset" />
          </mxGeometry>
        </mxCell>
        <mxCell id="-I0U8ej934PMOTIwb44J-30" value="" style="endArrow=block;startArrow=block;endFill=1;startFill=1;html=1;rounded=0;entryX=0;entryY=0.5;entryDx=0;entryDy=0;exitX=0.1;exitY=0;exitDx=0;exitDy=0;exitPerimeter=0;" parent="1" source="-I0U8ej934PMOTIwb44J-8" target="-I0U8ej934PMOTIwb44J-4" edge="1">
          <mxGeometry width="160" relative="1" as="geometry">
            <mxPoint x="60" y="300" as="sourcePoint" />
            <mxPoint x="60" as="targetPoint" />
            <Array as="points">
              <mxPoint x="92" y="150" />
              <mxPoint x="92" y="10" />
            </Array>
          </mxGeometry>
        </mxCell>
        <mxCell id="-I0U8ej934PMOTIwb44J-31" value="1" style="edgeLabel;html=1;align=center;verticalAlign=middle;resizable=0;points=[];" parent="-I0U8ej934PMOTIwb44J-30" vertex="1" connectable="0">
          <mxGeometry x="-0.5655" y="1" relative="1" as="geometry">
            <mxPoint y="43" as="offset" />
          </mxGeometry>
        </mxCell>
        <mxCell id="-I0U8ej934PMOTIwb44J-32" value="1" style="edgeLabel;html=1;align=center;verticalAlign=middle;resizable=0;points=[];" parent="-I0U8ej934PMOTIwb44J-30" vertex="1" connectable="0">
          <mxGeometry x="0.6276" y="2" relative="1" as="geometry">
            <mxPoint x="43" as="offset" />
          </mxGeometry>
        </mxCell>
        <mxCell id="-I0U8ej934PMOTIwb44J-34" value="" style="endArrow=block;startArrow=block;endFill=1;startFill=1;html=1;rounded=0;entryX=0.5;entryY=1;entryDx=0;entryDy=0;exitX=1;exitY=0.5;exitDx=0;exitDy=0;" parent="1" source="-I0U8ej934PMOTIwb44J-2" target="-I0U8ej934PMOTIwb44J-3" edge="1">
          <mxGeometry width="160" relative="1" as="geometry">
            <mxPoint x="440" y="130" as="sourcePoint" />
            <mxPoint x="369" y="353" as="targetPoint" />
            <Array as="points">
              <mxPoint x="540" y="130" />
            </Array>
          </mxGeometry>
        </mxCell>
        <mxCell id="-I0U8ej934PMOTIwb44J-35" value="1" style="edgeLabel;html=1;align=center;verticalAlign=middle;resizable=0;points=[];" parent="-I0U8ej934PMOTIwb44J-34" vertex="1" connectable="0">
          <mxGeometry x="-0.5655" y="1" relative="1" as="geometry">
            <mxPoint as="offset" />
          </mxGeometry>
        </mxCell>
        <mxCell id="-I0U8ej934PMOTIwb44J-36" value="1" style="edgeLabel;html=1;align=center;verticalAlign=middle;resizable=0;points=[];" parent="-I0U8ej934PMOTIwb44J-34" vertex="1" connectable="0">
          <mxGeometry x="0.6276" y="2" relative="1" as="geometry">
            <mxPoint as="offset" />
          </mxGeometry>
        </mxCell>
        <mxCell id="-I0U8ej934PMOTIwb44J-37" value="1" style="endArrow=open;html=1;endSize=12;startArrow=diamondThin;startSize=14;startFill=0;edgeStyle=orthogonalEdgeStyle;align=left;verticalAlign=bottom;rounded=0;exitX=0.5;exitY=0;exitDx=0;exitDy=0;entryX=1;entryY=0.5;entryDx=0;entryDy=0;" parent="1" source="-I0U8ej934PMOTIwb44J-2" target="-I0U8ej934PMOTIwb44J-4" edge="1">
          <mxGeometry x="-0.7895" y="10" relative="1" as="geometry">
            <mxPoint x="360" y="80" as="sourcePoint" />
            <mxPoint x="360" y="-20" as="targetPoint" />
            <mxPoint as="offset" />
          </mxGeometry>
        </mxCell>
        <mxCell id="-I0U8ej934PMOTIwb44J-39" value="0.*" style="text;html=1;align=center;verticalAlign=middle;resizable=0;points=[];autosize=1;strokeColor=none;fillColor=none;" parent="1" vertex="1">
          <mxGeometry x="300" y="-12" width="40" height="30" as="geometry" />
        </mxCell>
        <mxCell id="-I0U8ej934PMOTIwb44J-40" value="0.*&lt;br&gt;" style="text;html=1;align=center;verticalAlign=middle;resizable=0;points=[];autosize=1;strokeColor=none;fillColor=none;" parent="1" vertex="1">
          <mxGeometry x="430" y="430" width="40" height="30" as="geometry" />
        </mxCell>
        <mxCell id="-I0U8ej934PMOTIwb44J-41" value="0.*" style="text;html=1;align=center;verticalAlign=middle;resizable=0;points=[];autosize=1;strokeColor=none;fillColor=none;" parent="1" vertex="1">
          <mxGeometry x="520" y="288" width="40" height="30" as="geometry" />
        </mxCell>
        <mxCell id="-I0U8ej934PMOTIwb44J-42" value="0.*" style="text;html=1;align=center;verticalAlign=middle;resizable=0;points=[];autosize=1;strokeColor=none;fillColor=none;" parent="1" vertex="1">
          <mxGeometry x="210" y="288" width="40" height="30" as="geometry" />
        </mxCell>
        <mxCell id="-I0U8ej934PMOTIwb44J-44" value="" style="endArrow=block;startArrow=block;endFill=1;startFill=1;html=1;rounded=0;exitX=0.917;exitY=0;exitDx=0;exitDy=0;exitPerimeter=0;entryX=0.842;entryY=1.033;entryDx=0;entryDy=0;entryPerimeter=0;" parent="1" source="-I0U8ej934PMOTIwb44J-1" target="-I0U8ej934PMOTIwb44J-3" edge="1">
          <mxGeometry width="160" relative="1" as="geometry">
            <mxPoint x="430" y="270" as="sourcePoint" />
            <mxPoint x="500" y="260" as="targetPoint" />
            <Array as="points">
              <mxPoint x="430" y="200" />
              <mxPoint x="581" y="200" />
            </Array>
          </mxGeometry>
        </mxCell>
        <mxCell id="-I0U8ej934PMOTIwb44J-53" value="1" style="edgeLabel;html=1;align=center;verticalAlign=middle;resizable=0;points=[];" parent="-I0U8ej934PMOTIwb44J-44" vertex="1" connectable="0">
          <mxGeometry x="0.9074" y="-4" relative="1" as="geometry">
            <mxPoint as="offset" />
          </mxGeometry>
        </mxCell>
        <mxCell id="-I0U8ej934PMOTIwb44J-54" value="1" style="edgeLabel;html=1;align=center;verticalAlign=middle;resizable=0;points=[];" parent="-I0U8ej934PMOTIwb44J-44" vertex="1" connectable="0">
          <mxGeometry x="-0.8818" y="-4" relative="1" as="geometry">
            <mxPoint as="offset" />
          </mxGeometry>
        </mxCell>
        <mxCell id="-I0U8ej934PMOTIwb44J-45" value="" style="endArrow=block;startArrow=block;endFill=1;startFill=1;html=1;rounded=0;exitX=0.5;exitY=1;exitDx=0;exitDy=0;entryX=0.842;entryY=1.033;entryDx=0;entryDy=0;entryPerimeter=0;" parent="1" source="-I0U8ej934PMOTIwb44J-6" target="-I0U8ej934PMOTIwb44J-7" edge="1">
          <mxGeometry width="160" relative="1" as="geometry">
            <mxPoint x="230" y="560" as="sourcePoint" />
            <mxPoint x="660" y="390" as="targetPoint" />
            <Array as="points">
              <mxPoint x="220" y="560" />
              <mxPoint x="660" y="560" />
            </Array>
          </mxGeometry>
        </mxCell>
        <mxCell id="-I0U8ej934PMOTIwb44J-51" value="1" style="edgeLabel;html=1;align=center;verticalAlign=middle;resizable=0;points=[];" parent="-I0U8ej934PMOTIwb44J-45" vertex="1" connectable="0">
          <mxGeometry x="-0.9499" y="3" relative="1" as="geometry">
            <mxPoint as="offset" />
          </mxGeometry>
        </mxCell>
        <mxCell id="-I0U8ej934PMOTIwb44J-52" value="0.*" style="edgeLabel;html=1;align=center;verticalAlign=middle;resizable=0;points=[];" parent="-I0U8ej934PMOTIwb44J-45" vertex="1" connectable="0">
          <mxGeometry x="0.947" y="-2" relative="1" as="geometry">
            <mxPoint as="offset" />
          </mxGeometry>
        </mxCell>
        <mxCell id="-I0U8ej934PMOTIwb44J-46" value="" style="endArrow=block;startArrow=block;endFill=1;startFill=1;html=1;rounded=0;exitX=0.333;exitY=0.983;exitDx=0;exitDy=0;exitPerimeter=0;entryX=0.117;entryY=0.017;entryDx=0;entryDy=0;entryPerimeter=0;" parent="1" source="-I0U8ej934PMOTIwb44J-4" target="-I0U8ej934PMOTIwb44J-1" edge="1">
          <mxGeometry width="160" relative="1" as="geometry">
            <mxPoint x="340" y="260" as="sourcePoint" />
            <mxPoint x="500" y="260" as="targetPoint" />
            <Array as="points">
              <mxPoint x="200" y="200" />
              <mxPoint x="334" y="200" />
            </Array>
          </mxGeometry>
        </mxCell>
        <mxCell id="-I0U8ej934PMOTIwb44J-55" value="1.*" style="edgeLabel;html=1;align=center;verticalAlign=middle;resizable=0;points=[];" parent="-I0U8ej934PMOTIwb44J-46" vertex="1" connectable="0">
          <mxGeometry x="-0.9148" relative="1" as="geometry">
            <mxPoint as="offset" />
          </mxGeometry>
        </mxCell>
        <mxCell id="-I0U8ej934PMOTIwb44J-56" value="1" style="edgeLabel;html=1;align=center;verticalAlign=middle;resizable=0;points=[];" parent="-I0U8ej934PMOTIwb44J-46" vertex="1" connectable="0">
          <mxGeometry x="0.8723" y="2" relative="1" as="geometry">
            <mxPoint as="offset" />
          </mxGeometry>
        </mxCell>
        <mxCell id="-I0U8ej934PMOTIwb44J-47" value="" style="endArrow=block;startArrow=block;endFill=1;startFill=1;html=1;rounded=0;exitX=0.5;exitY=0;exitDx=0;exitDy=0;entryX=1;entryY=0.5;entryDx=0;entryDy=0;" parent="1" source="-I0U8ej934PMOTIwb44J-4" target="-I0U8ej934PMOTIwb44J-9" edge="1">
          <mxGeometry width="160" relative="1" as="geometry">
            <mxPoint x="220" y="-50" as="sourcePoint" />
            <mxPoint x="760" y="460" as="targetPoint" />
            <Array as="points">
              <mxPoint x="220" y="-60" />
              <mxPoint x="760" y="-60" />
              <mxPoint x="760" y="130" />
              <mxPoint x="760" y="470" />
            </Array>
          </mxGeometry>
        </mxCell>
        <mxCell id="-I0U8ej934PMOTIwb44J-50" value="0.*" style="edgeLabel;html=1;align=center;verticalAlign=middle;resizable=0;points=[];" parent="-I0U8ej934PMOTIwb44J-47" vertex="1" connectable="0">
          <mxGeometry x="0.9732" y="2" relative="1" as="geometry">
            <mxPoint as="offset" />
          </mxGeometry>
        </mxCell>
        <mxCell id="-I0U8ej934PMOTIwb44J-49" value="1" style="text;html=1;align=center;verticalAlign=middle;resizable=0;points=[];autosize=1;strokeColor=none;fillColor=none;" parent="1" vertex="1">
          <mxGeometry x="215" y="-62" width="30" height="30" as="geometry" />
        </mxCell>
      </root>
    </mxGraphModel>
  </diagram>
</mxfile>
